<?xml version="1.0" encoding="UTF-8"?><svg id="a" xmlns="http://www.w3.org/2000/svg" viewBox="0 0 384.548 384.548"><rect x="41.636" y="114.086" width="305.85" height="193.168" fill="none"/><path d="M72.046,176.576v-59.595h26.658c13.619,0,22.602,8.79,22.602,20.96s-8.983,20.863-22.602,20.863h-12.556v25.789h-14.102v-8.017ZM96.097,147.213c7.631,0,10.722-3.96,10.722-9.272,0-5.409-3.091-9.272-10.722-9.272h-9.948v18.545h9.948Z" fill="#fff" stroke="#fff"/><path d="M124.202,176.576v-59.595h26.271c13.909,0,22.988,8.307,22.988,20.38,0,8.886-4.926,15.84-13.136,18.834l14.584,18.642,7.534,9.755h-16.903l-20.187-26.755h-7.051v26.755h-14.102v-8.017ZM148.155,146.15c7.631,0,10.818-3.478,10.818-8.79,0-5.216-3.188-8.693-10.818-8.693h-9.852v17.482h9.852Z" fill="#fff" stroke="#fff"/><path d="M183.504,176.576v-59.595h14.102v67.612h-14.102v-8.017Z" fill="#fff" stroke="#fff"/><path d="M206.971,176.576v-59.595h13.619l30.521,44.237v-44.237h13.522v67.612h-13.522l-30.521-44.044v44.044h-13.619v-8.017Z" fill="#fff" stroke="#fff"/><path d="M267.045,116.98h56.794v13.136h-21.346v54.476h-14.103v-54.476h-21.346v-13.136Z" fill="#fff" stroke="#fff"/><path d="M68.229,263.008v-15.164c5.892,6.954,13.812,11.107,22.602,11.107,6.085,0,9.755-2.897,9.755-7.34,0-3.284-2.125-5.506-6.568-7.341l-11.591-4.926c-8.79-3.767-13.04-9.755-13.04-17.869,0-11.977,9.852-20.09,23.278-20.09,8.113,0,14.682,2.318,20.09,6.665v14.682c-4.829-5.312-13.232-8.693-19.704-8.693-5.505,0-8.693,2.415-8.693,6.375,0,2.994,1.642,5.022,5.989,6.761l12.073,4.733c8.693,3.284,13.136,9.659,13.136,18.448,0,13.329-10.142,21.54-25.596,21.54-8.982,0-16.42-3.091-21.732-8.887Z" fill="#fff" stroke="#fff"/><path d="M114.3,202.833h14.874q1.449,5.699,2.608,10.045l10.238,38.828,14.682-48.874h13.812l14.778,48.97,10.142-39.118q1.159-4.346,2.512-9.852h14.874l-3.477,11.494-16.71,56.118h-13.716l-15.357-47.618-15.261,47.618h-13.812l-16.999-57.083q-1.642-5.312-3.188-10.528Z" fill="#fff" stroke="#fff"/><path d="M207.891,259.048l21.925-56.214h14.585l22.216,56.794,4.153,10.818h-15.358l-3.38-9.949-1.739-4.926h-26.658l-1.835,5.409-3.188,9.466h-15.261l4.54-11.397ZM246.043,243.111l-9.08-25.982-8.982,25.982h18.062Z" fill="#fff" stroke="#fff"/><path d="M273.471,262.429v-59.595h26.658c13.618,0,22.602,8.79,22.602,20.96s-8.983,20.863-22.602,20.863h-12.557v25.789h-14.102v-8.017ZM297.521,233.066c7.631,0,10.722-3.96,10.722-9.272,0-5.409-3.091-9.272-10.722-9.272h-9.948v18.545h9.948Z" fill="#fff" stroke="#fff"/><circle cx="192.274" cy="192.274" r="185.12" fill="none" stroke="#fff" stroke-miterlimit="10" stroke-width="14.309"/></svg>