<?xml version="1.0" encoding="UTF-8"?><svg id="a" xmlns="http://www.w3.org/2000/svg" viewBox="0 0 215 215"><rect x="23.278" y="63.785" width="171" height="108" fill="none"/><path d="M40.282,98.723v-33.318h14.904c7.614,0,12.636,4.914,12.636,11.719s-5.021,11.664-12.636,11.664h-7.021v14.417h-7.884v-4.482ZM53.728,82.307c4.266,0,5.994-2.214,5.994-5.184,0-3.024-1.729-5.185-5.994-5.185h-5.562v10.368h5.562Z" fill="#231f20"/><path d="M69.442,98.723v-33.318h14.688c7.776,0,12.853,4.645,12.853,11.395,0,4.968-2.754,8.856-7.344,10.53l8.154,10.422,4.212,5.454h-9.45l-11.286-14.958h-3.942v14.958h-7.884v-4.482ZM82.833,81.713c4.267,0,6.049-1.944,6.049-4.914,0-2.916-1.782-4.86-6.049-4.86h-5.508v9.774h5.508Z" fill="#231f20"/><path d="M102.597,98.723v-33.318h7.884v37.8h-7.884v-4.482Z" fill="#231f20"/><path d="M115.719,98.723v-33.318h7.614l17.063,24.732v-24.732h7.561v37.8h-7.561l-17.063-24.624v24.624h-7.614v-4.482Z" fill="#231f20"/><path d="M149.306,65.405h31.752v7.345h-11.934v30.456h-7.884v-30.456h-11.935v-7.345Z" fill="#231f20"/><path d="M38.147,147.047v-8.478c3.294,3.888,7.722,6.21,12.636,6.21,3.402,0,5.454-1.62,5.454-4.104,0-1.836-1.188-3.078-3.672-4.104l-6.48-2.755c-4.914-2.105-7.29-5.454-7.29-9.99,0-6.695,5.509-11.231,13.015-11.231,4.536,0,8.208,1.296,11.232,3.726v8.208c-2.7-2.97-7.398-4.859-11.017-4.859-3.078,0-4.86,1.35-4.86,3.563,0,1.674.918,2.809,3.349,3.78l6.75,2.646c4.86,1.836,7.344,5.399,7.344,10.313,0,7.452-5.67,12.042-14.31,12.042-5.022,0-9.181-1.728-12.15-4.968Z" fill="#231f20"/><path d="M63.905,113.404h8.316q.81,3.187,1.458,5.616l5.724,21.708,8.208-27.324h7.723l8.262,27.379,5.67-21.871q.648-2.43,1.404-5.508h8.317l-1.944,6.427-9.342,31.374h-7.669l-8.586-26.622-8.532,26.622h-7.722l-9.504-31.914q-.918-2.971-1.782-5.887Z" fill="#231f20"/><path d="M116.23,144.833l12.259-31.429h8.153l12.421,31.753,2.321,6.048h-8.586l-1.89-5.562-.972-2.754h-14.904l-1.026,3.024-1.782,5.292h-8.533l2.539-6.372ZM137.561,135.923l-5.075-14.526-5.022,14.526h10.098Z" fill="#231f20"/><path d="M152.896,146.723v-33.318h14.904c7.614,0,12.636,4.914,12.636,11.719s-5.021,11.664-12.636,11.664h-7.021v14.418h-7.884v-4.482ZM166.343,130.307c4.266,0,5.994-2.214,5.994-5.184,0-3.024-1.729-5.185-5.994-5.185h-5.562v10.368h5.562Z" fill="#231f20"/><circle cx="107.5" cy="107.5" r="103.5" fill="none" stroke="#231f20" stroke-miterlimit="10" stroke-width="8"/></svg>