<?xml version="1.0" encoding="UTF-8"?>
<svg xmlns="http://www.w3.org/2000/svg" viewBox="0 0 922.74 923.03" fill="#000000">
  <!-- Layer 1: Circle shape -->
  <path d="M423.34,1.6c225.44-19.19,430.69,136.66,483.74,353.68,2.38,9.72,8.05,31.4,6.24,40.3-1.86,9.14-13.66,14.98-22.23,15.77-10.34.95-20.35,1.74-26.96-7.13-6.21-8.34-6.43-21.28-8.83-31.17-43.62-179.67-184.44-303.33-370.25-317.55-113.21-8.66-232.04,37.81-312.48,117.33-30.54,30.19-57.93,67.94-77.74,106.26-4.15,8.04-5.59,17.34-9.1,24.9-1.76,3.8-5.56,6.71-7.23,10.77-6.12,14.9-12.47,43.61-16.72,60.28-3.28,12.86-1.37,25.43-14.55,33.45s-39.06,2.49-40.74-14.64c-1.88-19.15,15.52-72.42,23.01-92.09C92.65,135.93,245.47,16.73,423.34,1.6Z"/>
  <path d="M794.93,772.68c-69.15,77.75-154.65,125.67-257.65,143.86-206.18,36.4-417.97-83.59-499.22-274.25-10.47-24.56-28.81-71.04-31.41-96.59-2.97-29.19,46.23-35.87,54.44-9.44,3.77,12.13,5.44,26.24,9.16,38.84,33.9,114.59,124.72,218.15,235.3,263.7,188.7,77.73,382.05,10.11,493.4-155.57,25.29-37.63,41.94-78.24,54.13-121.87,2.65-9.47,4.31-29.3,12.13-34.87,10.21-7.28,23.49-7.24,34.38-1.72,12.36,6.26,12.4,14.45,10.87,26.98-8.82,72.05-68,167.5-115.54,220.95Z"/>
  <!-- Layer 2: Print Swap text -->
  <path d="M372.65,507.41c5.36-1.1,37.94-2.33,39.69.11,3.55,16.39,8.02,32.68,12.7,48.79,3.79,13.05,9.03,21.87,9.59,36.47.12,3.1-2.66,9.55,1.44,9.55,4.42-1.05,2.92-6.17,3.73-9.29,7.42-28.55,13.79-57.44,22.24-85.76,1.75-2.11,29.64-.58,35.02-.98,3.31-.24,6.51-3.37,8.48-.45l-45.92,160-41.54-1.52-27.03-91.05c-2.04-.42-1.41.79-1.95,2-10.48,23.6-18.67,58.95-22.62,84.42-.35,2.23-1.42,4.31-2.05,6.46-3.73.89-6.84-1.57-10.37-1.88-5.95-.53-18.26-.69-24.08-.06-2.66.29-3.62.87-5.86,2.06l-1.78-2.27c-12.71-35.02-24.52-70.47-34.73-106.27-5.14-18.03-9.85-36.19-14.05-54.44l47.52,1.97,22.99,97.02c4.45.86,5.77-15.84,6.75-19.23,6.83-23.83,14.04-47.84,21.5-71.54.41-1.31.05-2.78.35-4.11Z"/>
  <path d="M184.54,445.8c-.88,1.43-1.99,1.38-3.45,1.55-12.34,1.45-27.55-1.4-40.05-.05-3.65.4-8.33,4.53-9.34,1.34l.33-202.36c2.93-2.85,19.35-.03,23.97.06,51.07,1.01,119.92-9.95,143.02,47.98,10,25.07,7.92,47.28-8.51,68.46-20.87,26.9-39.96,32.43-73.49,34.51-8.79.55-22.14-1.43-29.95.04-4.64.88-2.53,2.92-2.53,4.47v44ZM185.04,355.3h36c.49,0,8.45-2.21,9.41-2.59,22-8.77,30.41-39.59,10.62-55.44-11.65-9.32-32.65-9.18-47.01-7.96-2.37.2-10,1.24-11.03,2.97.13,14.48.7,29.01.56,43.55-.04,4.15-1.47,10.55-1.03,14.86.19,1.83,1.18,3.37,2.48,4.6Z"/>
  <path d="M699.55,650.31c3.19,20.89,2.15,42.05.56,63.06l-45.63.5-.8-1.2-.69-207.42,43.32.79c5.89,1.99-3.17,19.53,2.72,20.05,1.64.15,6.97-7.02,9.04-8.77,42.31-35.78,98.95,7.34,107.25,53.71,6.11,34.14-19.72,85.38-54.53,95-18.6,5.14-31.33,3.3-47.36-7.11-2.54-1.65-11.83-10.61-13.87-8.62ZM732.28,545.53c-30.33,4.31-40.01,25.79-32.04,54.57,5.12,18.49,23.56,31.09,42.74,28.13,16.25-2.5,23.71-34.69,22.44-48.31-1.44-15.33-15.95-36.84-33.13-34.4Z"/>
  <path d="M255.19,484.65c8.42,8.47,12.52,15.64,14.45,27.05.43,2.53,3.22,8.62.95,10.16-1.78,1.21-20.54,1.1-24.43,1.57-5.59.67-11.18,2.41-16.59,3.85-.24-1.4-.66-2.8-1.57-3.93-12.56-15.61-23.91-25.79-45.25-17.33-12.68,5.02-20.84,14.73-10.74,27.31,6.6,8.23,14.57,9.09,24.27,11.73,37.51,10.2,86.74,15.1,82.24,66.73-1.26,14.43-16.62,38.53-29.12,45.88-36.21,21.28-104.11,15.45-128.27-22.45-9.14-14.34,2.92-18.02,11.45-28.36,7.35-2.66,14.81-2.27,22.25-4.39,2.51.63,7.01,9.31,9.19,11.86,10.12,11.86,30.35,19.35,45.78,16.75,5.81-.98,18.33-7.43,19.49-13.5,3.34-17.42-13.67-24.72-27.55-27.97-4.09-.96-8.28-.63-11.65-1.35-35.68-7.58-70.06-19.39-67.54-63.44,3.66-63.95,91.99-81.07,132.64-40.16Z"/>
  <path d="M561.54,449.3l-45.51,1.03-2.34-1.68-2.15-156.35,49.06.45c2.53,1.75-2.84,18.18,1.46,21.55,2.47.52,9.3-10.51,11.56-12.42,30.2-25.68,89.81-5.38,94.87,34.98,2.59,20.59,1.63,47.61,2.1,68.9.31,14.21.17,28.51.52,42.61-1.78,2.56-10.18-.02-13.02-.1-7.62-.24-16.51-.37-24.08,0-3.58.18-10.35,3.46-11.95.02-.78-1.67-2.23-12.18-2.31-14.49-.79-24.53,2.87-50.34.78-74.98-2.59-30.41-38.33-32.85-54.51-10.54-1.13,1.56-4.48,9.17-4.48,10.52v90.5Z"/>
  <path d="M503.54,555.3c1.05-62.35,87.12-65.4,121.03-27.53,7.58,8.46,10.14,19.84,10.96,31.04,2.35,32.04-2.04,66.85-.02,99.02.16,2.52.53,4.86,2.01,6.97-.68.99-1.3,1.29-2.47,1.49-11.49,1.96-26.96-2.14-38.88.92-4.45-1.27,2.07-17.77-5.09-16.96-2.08.23-9.58,8.12-12.2,9.88-16.83,11.28-38.39,11.74-57.35,5.68-27.51-8.79-33.76-51.32-16.5-72.53,16.9-20.75,36.1-21.45,60.97-23.03,13.54-.86,26.55,5.93,23.48-13.4-3.32-20.87-46.09-27.15-48.93-1.56h-37ZM584.32,596.57c-9.3-.08-34.1,3.11-41.13,8.89-5.52,4.54-5.82,13.61-4.6,20.3,1.86,10.25,19.69,9.39,27.5,8.6,16.63-1.67,27.24-13.66,25.44-30.55-.56-5.21-1.67-7.19-7.21-7.24Z"/>
  <path d="M752.54,248.3v44.5c8.18,5.46,21.69-.27,31.38-.27,3.09,1.18,1.62,2.2,1.62,3.27v34.5h-32.5c-.13,0-2.22,1.07-2.31,1.21-2.51,7.35-.23,14.27-.14,21.25.13,10.45-2.56,42.09.71,49.28,4.27,9.38,16.67,9.04,25.5,7.03,1.17-.27,8.74-5.04,8.74-1.26v35c-6.02,2.51-13.64,5.43-20.14,6.86-42.85,9.43-61.03-12.11-62.9-52.82-.95-20.74.82-42.2.02-63.02.28-2.35-6.14-5.52-7.48-5.52h-16.5l-.53-35.03c1.01-1.41,1.34-.81,2.55-.52,2.79.68,4.97,2.17,8.5,2.54,2.5.26,14.49.79,14.49-2.49v-45.5l49,1Z"/>
  <path d="M319.04,450.3l-1.04-158.05,35.08,1.09c2.71.81,11.88-3.3,12.92-3.04,4.03,1.03-1.59,20.14,1.65,23.88,5.74,1.59,8.04-5.86,12.37-9.9,3.9-3.64,17.2-11.98,22.02-11.98h25c.24,0,1.97,1.73,2.09,2.46-3.36,14.49-.67,29.94-1.59,44.54h-28.5c-2.39,0-16.25,7.07-18.52,9.48-14.23,15.07-10.65,33.16-10.93,52.06-.17,11.52-.02,23.41,0,34.92,0,4.85-.1,9.71-.05,14.54h-50.5Z"/>
  <path d="M441.17,294.38c1.1-.31,4,.93,5.83.97,13.51.34,30.17-1.51,43.09-.1,5.35.58,2.48,2.82,2.4,6.5-.82,40.01,1.31,79.94,0,120-.23,7.17,1.22,18.7.04,25.04-.83,4.46-5.21,1.55-8.46,1.46-7.36-.21-15.76-.32-23.08,0-4.21.18-16.61,4.38-18.29-.62-.22-20.29-.43-40.6-1.12-60.88-.2-5.84-1.9-13.09-2.08-18.92-.63-19.59-2.15-51.5,0-70.09.15-1.33.07-2.92,1.67-3.38Z"/>
  <path d="M461.28,225.54c33.83-5.66,46.12,32.7,18.62,48.62-8.24,4.77-14.87,4.46-23.56.84-22.55-9.37-18.63-45.52,4.94-49.47Z"/>
  <!-- Layer 3: Decorative elements -->
  <path d="M58.25,451.59c1.3,1.83,3.46,13.49,3.36,16.22-.11,3.04-2.32,12.69-5.06,14-1,.48-11.25,1.41-13.46,1.54-8.15.46-18.92.43-27.08,0-3.28-.17-14.92-.86-16-3.05l1.76-26.28c2.36-3.85,4.82-5.36,9.24-5.76,9.19-.85,31.14-1.07,40.07.02,1.84.22,6.26,2.02,7.18,3.32Z"/>
  <path d="M920.95,469.93c.13.33,2.48.36,1.59,3.7-3.01,1-2.81,5.08-4.24,6.42-3.24,3.04-37.89,2.74-44.3,2.29-3.54-.25-11.77-.79-12.46-4.54-.54-2.95-.5-17.95.05-20.95.65-3.55,6.17-7.88,9.49-8.5,6.61-1.24,11.32,1.57,16.97,1.95,7.54.49,16.24-.94,23.55.45,10.66,2.04,6.32,11.26,9.36,19.18Z"/>
</svg>
